# xmcd
#
# Track frame offsets:
#  150
#  12212
#  24250
#  37805
#  49360
#  61922
#  71470
#  83490
#  106147
#  117972
#  134835
#  149420
#  164412
#
# Disc length: 2330 seconds
#
# Revision: 0
# Processed by: cddbd v1.4PL0 Copyright (c) Steve Scherf et al.
# Submitted via: AltoMP3_Maker 3.0
#
DISCID=a909180d
DTITLE=Jack Knife And The Sharps - Jack Knife And The Sharps
DYEAR=1900
DGENRE=
TTITLE0=As The World Turns
TTITLE1=Come On Home
TTITLE2=The One That Got Away
TTITLE3=Can't Stop
TTITLE4=Ain't That Lovin' Ya Baby
TTITLE5=Justifiable Homicide
TTITLE6=A Little Bit More
TTITLE7=Jack Knife
TTITLE8=Slow Down
TTITLE9=Another Fool
TTITLE10=Dead In Your Tracks
TTITLE11=Her Jungle Love
TTITLE12=Big Guitar
EXTD=
EXTT0=
EXTT1=
EXTT2=
EXTT3=
EXTT4=
EXTT5=
EXTT6=
EXTT7=
EXTT8=
EXTT9=
EXTT10=
EXTT11=
EXTT12=
PLAYORDER=
